<svg width="66" height="81" fill="none" xmlns="http://www.w3.org/2000/svg"><path d="M63.347 81c1.916 0 3.103-2.19 2.008-3.74-1.552-2.374-4.29-3.925-7.3-3.925a9.19 9.19 0 00-2.282.274c-2.008-3.65-5.84-6.114-10.22-6.114-.457 0-.822 0-1.278.091V63.48H21.643v5.11c-4.197 0-7.756 2.281-9.673 5.658-1.186-.64-2.646-1.004-4.106-1.004-3.103 0-5.75 1.551-7.3 3.924-1.096 1.642.09 3.741 2.007 3.741h60.776V81z" fill="url(#paint0_linear_601_2281)"/><path opacity=".07" d="M45.553 67.495c-.456 0-.821 0-1.278.091V63.48H21.644v5.11h19.164c3.924 0 7.574 2.281 9.216 5.931.092.092.092.183.092.365.09.092.09.274.182.365a1.137 1.137 0 001.825.457 8.006 8.006 0 013.742-2.1c-2.008-3.65-5.84-6.113-10.312-6.113zM10.055 78.719c.273 0 .547-.182.638-.547a11.668 11.668 0 011.278-3.924c-1.186-.64-2.647-1.004-4.107-1.004-1.095 0-2.19.182-3.102.547 2.099.822 3.832 2.464 4.836 4.472 0 .365.183.456.457.456z" fill="#000"/><path d="M12.972 39.57l-2.646 2.646c-3.468 3.468-5.384 8.122-5.384 13.05a3.076 3.076 0 003.102 3.102h12.411v-21.17h-1.551c-2.282 0-4.38.912-5.932 2.372z" fill="url(#paint1_linear_601_2281)"/><path d="M52.943 39.57l2.646 2.646c3.468 3.468 5.384 8.122 5.384 13.05a3.077 3.077 0 01-3.103 3.102H45.55v-21.17h1.552c2.19 0 4.29.912 5.84 2.372z" fill="url(#paint2_linear_601_2281)"/><path d="M49.75 28.984V55.54H16.168V28.984A32.674 32.674 0 0125.75 5.897l3.468-3.468a5.457 5.457 0 017.665 0l3.468 3.468c6.023 6.114 9.399 14.418 9.399 23.087z" fill="url(#paint3_linear_601_2281)"/><path opacity=".07" d="M40.165 5.897L36.697 2.43C34.781.513 31.861.331 29.762 1.882c.273.182.456.365.639.547l3.467 3.468a32.674 32.674 0 019.582 23.088V55.54h6.297V28.985c0-8.67-3.377-16.974-9.582-23.088z" fill="#000"/><path d="M29.126 2.43l-3.468 3.467c-3.65 3.742-6.388 8.213-7.94 13.141h30.48c-1.551-4.928-4.289-9.4-8.03-13.14L36.7 2.43c-2.008-2.1-5.475-2.1-7.574 0z" fill="url(#paint4_linear_601_2281)"/><path d="M32.959 49.06a12.463 12.463 0 0012.502-12.5 12.463 12.463 0 00-12.502-12.502A12.463 12.463 0 0020.457 36.56a12.463 12.463 0 0012.502 12.5z" fill="url(#paint5_linear_601_2281)"/><path opacity=".05" d="M32.958 24.148c-1.095 0-2.099.182-3.102.364 5.383 1.37 9.307 6.297 9.307 12.046 0 5.84-3.923 10.677-9.307 12.046 1.003.274 2.098.365 3.102.365A12.463 12.463 0 0045.46 36.467c0-6.753-5.566-12.32-12.502-12.32z" fill="#000"/><path d="M32.96 43.768c3.923 0 7.208-3.194 7.208-7.21a7.167 7.167 0 00-7.209-7.208 7.166 7.166 0 00-7.209 7.209c0 4.015 3.285 7.209 7.21 7.209z" fill="url(#paint6_linear_601_2281)"/><path opacity=".1" d="M32.957 29.441a7.6 7.6 0 00-2.008.274c3.012.822 5.202 3.65 5.202 6.936 0 3.285-2.19 6.022-5.202 6.935a7.117 7.117 0 002.008.274 7.227 7.227 0 007.209-7.21 7.228 7.228 0 00-7.21-7.209z" fill="#000"/><path d="M16.168 53.715v7.209a3.7 3.7 0 003.741 3.741h26.1a3.7 3.7 0 003.741-3.741v-7.21H16.168z" fill="url(#paint7_linear_601_2281)"/><path opacity=".1" d="M43.45 64.666h2.555a3.7 3.7 0 003.742-3.742v-7.209H43.45v10.95zM40.165 5.897L36.697 2.43C34.781.513 31.861.331 29.762 1.882c.273.182.456.365.639.547l3.467 3.468c3.742 3.742 6.48 8.213 8.03 13.14h6.297c-1.551-4.927-4.289-9.398-8.03-13.14z" fill="#000"/><defs><linearGradient id="paint0_linear_601_2281" x1="32.959" y1="66.946" x2="32.959" y2="87.935" gradientUnits="userSpaceOnUse"><stop stop-color="#fff"/><stop offset=".416" stop-color="#F5F4F8"/><stop offset="1" stop-color="#EFECF3"/></linearGradient><linearGradient id="paint1_linear_601_2281" x1="2.789" y1="40.536" x2="21.894" y2="48.716" gradientUnits="userSpaceOnUse"><stop stop-color="#FF9AA1"/><stop offset="1" stop-color="#FC0012"/></linearGradient><linearGradient id="paint2_linear_601_2281" x1="43.411" y1="40.536" x2="62.438" y2="48.635" gradientUnits="userSpaceOnUse"><stop stop-color="#FF9AA1"/><stop offset="1" stop-color="#FC0012"/></linearGradient><linearGradient id="paint3_linear_601_2281" x1="16.06" y1="28.186" x2="49.316" y2="28.186" gradientUnits="userSpaceOnUse"><stop stop-color="#fff"/><stop offset=".416" stop-color="#F5F4F8"/><stop offset="1" stop-color="#EFECF3"/></linearGradient><linearGradient id="paint4_linear_601_2281" x1="13.49" y1="3.723" x2="36.157" y2="25.926" gradientUnits="userSpaceOnUse"><stop stop-color="#FF9AA1"/><stop offset="1" stop-color="#FC0012"/></linearGradient><linearGradient id="paint5_linear_601_2281" x1="17.903" y1="36.474" x2="45.313" y2="36.694" gradientUnits="userSpaceOnUse"><stop stop-color="#FFF3D9"/><stop offset=".606" stop-color="#FFCC60"/><stop offset="1" stop-color="#FDBC31"/></linearGradient><linearGradient id="paint6_linear_601_2281" x1="25.83" y1="36.599" x2="39.926" y2="36.599" gradientUnits="userSpaceOnUse"><stop stop-color="#3BCFFE"/><stop offset="1" stop-color="#3C76F2"/></linearGradient><linearGradient id="paint7_linear_601_2281" x1="11.509" y1="55.442" x2="23.13" y2="76.266" gradientUnits="userSpaceOnUse"><stop stop-color="#FF9AA1"/><stop offset="1" stop-color="#FC0012"/></linearGradient></defs></svg>