<svg width="75" height="84" fill="none" xmlns="http://www.w3.org/2000/svg"><path d="M41.767 59.734l-4.9 4.869c2.8 3.13 7.584 3.245 10.617.347.933-1.043.35-2.666-1.05-2.897-1.75-.232-3.5-1.044-4.667-2.319z" fill="url(#paint0_linear_601_2299)"/><path d="M38.733 62.632L51.1 74.918a5.094 5.094 0 011.486 3.593 5.095 5.095 0 01-1.486 3.594 5.163 5.163 0 01-3.617 1.476 5.162 5.162 0 01-3.616-1.476L31.5 69.935l7.233-7.303z" fill="url(#paint1_linear_601_2299)"/><path opacity=".07" d="M31.5 69.934l.7.696c1.867 1.854 4.9 1.854 6.883 0l1.05-1.044L48.3 77.7c1.517 1.507 1.867 3.71 1.167 5.564.583-.232 1.166-.58 1.633-1.16a5.095 5.095 0 001.486-3.593 5.094 5.094 0 00-1.486-3.593L38.733 62.632 31.5 69.934z" fill="#000"/><path d="M48.064 43.275c9.45 0 17.15-7.65 17.15-17.04 0-9.388-7.7-17.038-17.15-17.038s-17.15 7.65-17.15 17.039c0 9.388 7.7 17.039 17.15 17.039z" fill="url(#paint2_linear_601_2299)"/><path opacity=".05" d="M35.348 14.878l24.266 24.109.7-.696c2.45-2.434 3.967-5.447 4.667-8.577L44.564 9.546c-3.15.695-6.183 2.202-8.633 4.636-.233.232-.35.464-.583.696z" fill="#000"/><path d="M18.666 25.309L6.299 37.595a21.262 21.262 0 00-4.662 6.91 21.15 21.15 0 000 16.317 21.262 21.262 0 004.662 6.91 21.417 21.417 0 006.955 4.631 21.53 21.53 0 0016.423 0 21.417 21.417 0 006.955-4.631L49 55.445a21.389 21.389 0 018.304-4.978 21.494 21.494 0 019.663-.817L70 46.636 27.533 4.446 24.5 7.458c.47 3.22.189 6.505-.823 9.6a21.198 21.198 0 01-5.01 8.25z" fill="url(#paint3_linear_601_2299)"/><path opacity=".07" d="M27.531 4.445l42.467 42.191-3.034 3.014c-3.733-.58-7.583-.116-11.083 1.275L23.098 18.47c1.4-3.477 1.866-7.302 1.283-11.011l3.15-3.014z" fill="#000"/><path d="M12.598 68.659L9.215 72.02a5.162 5.162 0 01-3.617 1.476 5.162 5.162 0 01-3.616-1.476 5.095 5.095 0 01-1.486-3.593c0-1.345.534-2.636 1.486-3.593l3.383-3.361 7.233 7.186z" fill="url(#paint4_linear_601_2299)"/><path d="M37.332 67.152L7 37.016l-.7.695a21.261 21.261 0 00-4.662 6.91 21.15 21.15 0 000 16.316 21.26 21.26 0 004.662 6.91 21.418 21.418 0 006.955 4.632 21.53 21.53 0 0016.423 0 21.418 21.418 0 006.955-4.632l.7-.695z" fill="url(#paint5_linear_601_2299)"/><path d="M65.45 49.998L24.15 8.966a5.095 5.095 0 01-1.486-3.593c0-1.345.534-2.636 1.486-3.593A5.162 5.162 0 0127.766.304a5.16 5.16 0 013.617 1.476l41.3 41.032a5.095 5.095 0 011.486 3.593 5.095 5.095 0 01-1.486 3.593 4.962 4.962 0 01-7.233 0z" fill="url(#paint6_linear_601_2299)"/><path d="M59.965 8.387c-.933 0-1.633-.696-1.633-1.623V2.475c0-.927.7-1.622 1.633-1.622.934 0 1.634.695 1.634 1.622v4.289c0 .927-.817 1.623-1.634 1.623z" fill="url(#paint7_linear_601_2299)"/><path d="M71.981 16.153h-4.316c-.934 0-1.634-.696-1.634-1.623s.7-1.623 1.634-1.623h4.316c.934 0 1.634.696 1.634 1.623 0 .811-.7 1.623-1.634 1.623z" fill="url(#paint8_linear_601_2299)"/><path d="M64.283 10.125c-.7-.696-.7-1.623 0-2.318l3.033-3.014c.7-.695 1.633-.695 2.334 0 .7.696.7 1.623 0 2.318l-3.034 3.014c-.7.695-1.75.695-2.333 0z" fill="url(#paint9_linear_601_2299)"/><defs><linearGradient id="paint0_linear_601_2299" x1="45.346" y1="57.993" x2="41.884" y2="65.545" gradientUnits="userSpaceOnUse"><stop stop-color="#FFF3D9"/><stop offset=".624" stop-color="#FFCC60"/><stop offset="1" stop-color="#FDBC31"/></linearGradient><linearGradient id="paint1_linear_601_2299" x1="31.428" y1="73.2" x2="52.393" y2="73.2" gradientUnits="userSpaceOnUse"><stop stop-color="#DADADA"/><stop offset=".416" stop-color="#F5F4F8"/><stop offset="1" stop-color="#EFECF3"/></linearGradient><linearGradient id="paint2_linear_601_2299" x1="33.341" y1="26.21" x2="65.111" y2="26.21" gradientUnits="userSpaceOnUse"><stop stop-color="#FFF3D9"/><stop offset=".624" stop-color="#FFCC60"/><stop offset="1" stop-color="#FDBC31"/></linearGradient><linearGradient id="paint3_linear_601_2299" x1="-.218" y1="39.233" x2="69.095" y2="39.233" gradientUnits="userSpaceOnUse"><stop stop-color="#fff"/><stop offset=".416" stop-color="#F5F4F8"/><stop offset="1" stop-color="#EFECF3"/></linearGradient><linearGradient id="paint4_linear_601_2299" x1="-1.183" y1="63.369" x2="11.92" y2="71.076" gradientUnits="userSpaceOnUse"><stop stop-color="#FF9AA1"/><stop offset="1" stop-color="#FC0012"/></linearGradient><linearGradient id="paint5_linear_601_2299" x1="-5.18" y1="42.864" x2="35.241" y2="66.638" gradientUnits="userSpaceOnUse"><stop stop-color="#FF9AA1"/><stop offset="1" stop-color="#FC0012"/></linearGradient><linearGradient id="paint6_linear_601_2299" x1="15.518" y1="8.387" x2="71.332" y2="41.158" gradientUnits="userSpaceOnUse"><stop stop-color="#FF9AA1"/><stop offset="1" stop-color="#FC0012"/></linearGradient><linearGradient id="paint7_linear_601_2299" x1="58.508" y1="4.631" x2="61.554" y2="4.631" gradientUnits="userSpaceOnUse"><stop stop-color="#FFF3D9"/><stop offset=".624" stop-color="#FFCC60"/><stop offset="1" stop-color="#FDBC31"/></linearGradient><linearGradient id="paint8_linear_601_2299" x1="66.574" y1="14.473" x2="73.582" y2="14.473" gradientUnits="userSpaceOnUse"><stop stop-color="#FFF3D9"/><stop offset=".624" stop-color="#FFCC60"/><stop offset="1" stop-color="#FDBC31"/></linearGradient><linearGradient id="paint9_linear_601_2299" x1="64.213" y1="7.516" x2="70.061" y2="7.516" gradientUnits="userSpaceOnUse"><stop stop-color="#FFF3D9"/><stop offset=".624" stop-color="#FFCC60"/><stop offset="1" stop-color="#FDBC31"/></linearGradient></defs></svg>