<svg width="60" height="74" fill="none" xmlns="http://www.w3.org/2000/svg"><g clip-path="url(#clip0_601_2134)"><path d="M30 67.273c16.583 0 30-13.539 30-30.273S46.583 6.728 30 6.728 0 20.266 0 37c0 16.734 13.417 30.273 30 30.273z" fill="url(#paint0_linear_601_2134)"/><path opacity=".1" d="M30.001 6.728l-2.333.084c6.917.504 13.083 3.447 17.917 7.904L44.5 15.81c-.916.925-1.333 2.355-1 3.616l.917 3.868-15 15.22-1.5-1.513v3.784a1.983 1.983 0 00.57 1.443 1.95 1.95 0 001.43.576c.5 0 1.083-.169 1.417-.59l14.75-14.883 3.833.925c1.25.336 2.667-.084 3.583-1.01 1 3.028 1.584 6.308 1.584 9.755 0 15.893-12.167 28.927-27.667 30.189 1 .084 1.75.084 2.583.084 16.584 0 30-13.539 30-30.273S46.584 6.729 30 6.729z" fill="#000"/><path d="M30 40.531c1.917 0 3.5-1.597 3.5-3.531 0-1.934-1.583-3.532-3.5-3.532S26.5 35.065 26.5 37c0 1.934 1.583 3.531 3.5 3.531z" fill="url(#paint1_linear_601_2134)"/><path d="M29.999 15.64C18.332 15.64 8.832 25.228 8.832 37s9.5 21.359 21.167 21.359c11.666 0 21.166-9.587 21.166-21.36 0-11.772-9.5-21.358-21.166-21.358zm0 33.805a12.212 12.212 0 01-4.724-.94 12.302 12.302 0 01-4.005-2.698 12.427 12.427 0 01-2.672-4.04A12.517 12.517 0 0117.665 37a12.517 12.517 0 01.933-4.767 12.43 12.43 0 012.672-4.041 12.302 12.302 0 014.005-2.697 12.212 12.212 0 014.724-.94 12.2 12.2 0 014.723.94 12.302 12.302 0 014.005 2.697 12.43 12.43 0 012.673 4.041c.619 1.512.935 3.131.932 4.767a12.517 12.517 0 01-.932 4.766 12.427 12.427 0 01-2.673 4.041 12.302 12.302 0 01-4.005 2.698 12.212 12.212 0 01-4.723.94z" fill="url(#paint2_linear_601_2134)"/><path d="M29.418 38.513L27.918 37v2.859c.583.42 1.25.672 2.083.672a3.509 3.509 0 002.468-1.041A3.573 3.573 0 0033.5 37c0-.757-.25-1.43-.666-2.019l-3.417 3.532z" fill="url(#paint3_linear_601_2134)"/><path opacity=".1" d="M43.918 20.855l.583 2.438-5.333 5.298c.917 1.009 1.75 2.27 2.25 3.616l4.833-4.878 3 .757c-1.25-2.775-3.083-5.213-5.333-7.231z" fill="#000"/><path d="M58.75 14.884l-5.417-1.43-1.334-5.465a1.718 1.718 0 00-.443-.76 1.696 1.696 0 00-1.632-.436 1.696 1.696 0 00-.758.439l-5.833 5.886c-.917.925-1.334 2.355-1 3.616l1.5 6.223 6.166 1.514c1.25.336 2.667-.085 3.584-1.01l5.833-5.886c1-.84.583-2.439-.667-2.69z" fill="url(#paint4_linear_601_2134)"/><path d="M58.75 14.884l-5.417-1.43-1.334-5.465a1.718 1.718 0 00-.443-.76 1.696 1.696 0 00-1.632-.436 1.696 1.696 0 00-.758.439l-5.833 5.886c-.917.925-1.334 2.355-1 3.616l1.5 6.223 6.166 1.514c1.25.336 2.667-.085 3.584-1.01l5.833-5.886c1-.84.583-2.439-.667-2.69z" fill="url(#paint5_linear_601_2134)"/><path d="M58.748 14.884l-5.416-1.43-1.334-5.465a1.718 1.718 0 00-.443-.76 1.696 1.696 0 00-1.633-.436 1.696 1.696 0 00-.757.439l-3.25 3.28c-.917.924-1.334 2.354-1 3.615l1.5 6.223 6.166 1.514c1.25.336 2.667-.084 3.584-1.01l3.25-3.279c1-.84.583-2.439-.667-2.69z" fill="url(#paint6_linear_601_2134)"/><path d="M58.748 14.884l-5.416-1.43-1.334-5.465a1.718 1.718 0 00-.443-.76 1.696 1.696 0 00-1.633-.436 1.696 1.696 0 00-.757.439l-.75.757c-.917.925-1.334 2.354-1 3.616l1.5 6.222 6.166 1.514c1.25.336 2.667-.084 3.584-1.01l.75-.756c1-.84.583-2.439-.667-2.69z" fill="url(#paint7_linear_601_2134)"/><path d="M29.999 39.102c-.5 0-1.084-.168-1.417-.588-.833-.841-.833-2.103 0-2.944l23.167-23.377c.833-.84 2.083-.84 2.916 0 .834.841.834 2.103 0 2.943L31.415 38.43c-.333.421-.916.673-1.416.673z" fill="url(#paint8_linear_601_2134)"/></g><defs><linearGradient id="paint0_linear_601_2134" x1="-8.324" y1="16.275" x2="57.154" y2="54.192" gradientUnits="userSpaceOnUse"><stop stop-color="#FF9AA1"/><stop offset="1" stop-color="#FC0012"/></linearGradient><linearGradient id="paint1_linear_601_2134" x1="8.705" y1="37.001" x2="50.602" y2="37.001" gradientUnits="userSpaceOnUse"><stop stop-color="#F2FBFF"/><stop offset=".593" stop-color="#FAF7F7"/><stop offset="1" stop-color="#F3EAE6"/></linearGradient><linearGradient id="paint2_linear_601_2134" x1="8.704" y1="37.001" x2="50.601" y2="37.001" gradientUnits="userSpaceOnUse"><stop stop-color="#fff"/><stop offset=".416" stop-color="#F5F4F8"/><stop offset="1" stop-color="#EFECF3"/></linearGradient><linearGradient id="paint3_linear_601_2134" x1="24.356" y1="37.756" x2="50.727" y2="37.756" gradientUnits="userSpaceOnUse"><stop stop-color="#F3EAE6"/><stop offset="1" stop-color="#CDBFBA"/></linearGradient><linearGradient id="paint4_linear_601_2134" x1="40.626" y1="15.679" x2="53.175" y2="15.679" gradientUnits="userSpaceOnUse"><stop stop-color="#FFF9DF"/><stop offset=".593" stop-color="#FFE177"/><stop offset="1" stop-color="#FEB137"/></linearGradient><linearGradient id="paint5_linear_601_2134" x1="40.626" y1="15.679" x2="53.175" y2="15.679" gradientUnits="userSpaceOnUse"><stop stop-color="#FFF9DF"/><stop offset=".593" stop-color="#FFE177"/><stop offset="1" stop-color="#FEB137"/></linearGradient><linearGradient id="paint6_linear_601_2134" x1="40.625" y1="14.393" x2="53.174" y2="14.393" gradientUnits="userSpaceOnUse"><stop stop-color="#FFF9DF"/><stop offset=".593" stop-color="#FFE177"/><stop offset="1" stop-color="#FEB137"/></linearGradient><linearGradient id="paint7_linear_601_2134" x1="40.625" y1="13.107" x2="53.174" y2="13.107" gradientUnits="userSpaceOnUse"><stop stop-color="#FFF9DF"/><stop offset=".593" stop-color="#FFE177"/><stop offset="1" stop-color="#FEB137"/></linearGradient><linearGradient id="paint8_linear_601_2134" x1="28.024" y1="25.311" x2="54.829" y2="25.311" gradientUnits="userSpaceOnUse"><stop stop-color="#3BCFFE"/><stop offset="1" stop-color="#3C76F2"/></linearGradient><clipPath id="clip0_601_2134"><path fill="#fff" d="M0 0h60v74H0z"/></clipPath></defs></svg>